<svg xmlns="http://www.w3.org/2000/svg" xmlns:xlink="http://www.w3.org/1999/xlink" version="1.1" viewBox="0 0 1616 2016" style="background: #ffffff"><defs joint-selector="defs"></defs><g  joint-selector="layers" transform="matrix(1,0,0,1,0,0)"><g ></g><g ><g   id="j_36"  transform="translate(20,1971)"><g id="v-446"><text  id="v-447" font-size="22px" xml:space="preserve" y="0.8em" font-weight="normal" text-anchor="start" fill="#aaaaaa" pointer-events="none" font-family="Open Sans"><tspan  dy="0">Tuesday, March 14, 2023 at 10:48 AM Central European Standard Time</tspan></text></g></g><g   id="j_35"  transform="translate(20,1927)"><g id="v-444"><text  id="v-445" font-size="36px" xml:space="preserve" y="0.8em" font-weight="normal" text-anchor="start" fill="#000000" pointer-events="none" font-family="Open Sans"><tspan  dy="0">[System Context] Gas Price Finder System</tspan></text></g></g><g   id="j_28"  transform="translate(608,208)" style=""><g  id="v-353" style="opacity: 1;"><rect  x="0" y="160" width="400" height="240" rx="70" id="v-355" stroke="#c7c7c7" stroke-width="2" pointer-events="visiblePainted" fill="#dddddd" style="fill: rgb(221, 221, 221); stroke: rgb(199, 199, 199);"></rect><circle  cx="200" cy="88.88888888888889" r="88.88888888888889" id="v-354" stroke="#c7c7c7" stroke-width="2" pointer-events="visiblePainted" fill="#dddddd" style="fill: rgb(221, 221, 221); stroke: rgb(199, 199, 199);"></circle><line  x1="80" y1="266.6666666666667" x2="80" y2="400" id="v-361" stroke="#c7c7c7" stroke-width="2" style="stroke: rgb(199, 199, 199);"></line><line  x1="320" y1="266.6666666666667" x2="320" y2="400" id="v-362" stroke="#c7c7c7" stroke-width="2" style="stroke: rgb(199, 199, 199);"></line><text  id="v-356" font-size="34" xml:space="preserve" y="0.8em" font-weight="bold" text-anchor="middle" pointer-events="visible" font-family="Open Sans" fill="#000000" transform="matrix(1,0,0,1,200,244.39999389648438)" style="fill: rgb(0, 0, 0);"><tspan  dy="0">User</tspan></text><text  id="v-357" font-size="17" xml:space="preserve" y="0.8em" text-anchor="middle" font-family="Open Sans" fill="#000000" transform="matrix(1,0,0,1,200,285.20001220703125)" style="fill: rgb(0, 0, 0);"><tspan  dy="0">[Person]</tspan></text><text  id="v-358" font-size="24" xml:space="preserve" display="none" y="0.8em" text-anchor="middle" font-family="Open Sans" fill="#000000" transform="matrix(1,0,0,1,200,315.6000061035156)" style="fill: rgb(0, 0, 0);"><tspan style="fill-opacity: 0; stroke-opacity: 0;"  dy="0">-</tspan></text><g  id="v-359" font-weight="normal" text-anchor="middle" color="#000000" opacity="0.75" transform="matrix(1,0,0,1,197.5,325.6000061035156)" style="fill: rgb(0, 0, 0);" display="none"><g ></g><g ></g><g ></g><g ></g></g><image  id="v-360"></image></g></g><g   id="j_29"  transform="translate(583,908)" style=""><g  id="v-369" style="opacity: 1;"><rect  id="v-370" rx="1" ry="1" stroke="#c7c7c7" stroke-width="2" pointer-events="visiblePainted" fill="#dddddd" width="450" height="300" style="fill: rgb(221, 221, 221); stroke: rgb(199, 199, 199);"></rect><text  id="v-371" font-size="34" xml:space="preserve" y="0.8em" font-weight="bold" text-anchor="middle" pointer-events="visible" font-family="Open Sans" fill="#000000" transform="matrix(1,0,0,1,225,71.19999694824219)" style="fill: rgb(0, 0, 0);"><tspan  dy="0">Gas Price Finder System</tspan></text><text  id="v-372" font-size="17" xml:space="preserve" y="0.8em" text-anchor="middle" font-family="Open Sans" fill="#000000" transform="matrix(1,0,0,1,225,112)" style="fill: rgb(0, 0, 0);"><tspan  dy="0">[Software System]</tspan></text><text  id="v-373" font-size="24" xml:space="preserve" y="0.8em" text-anchor="middle" font-family="Open Sans" fill="#000000" transform="matrix(1,0,0,1,225,142.39999389648438)" style="fill: rgb(0, 0, 0);"><tspan  dy="0">System to import and process</tspan><tspan dy="1.2em" x="0" >gasprices and alert users of cheap</tspan><tspan dy="1.2em" x="0" >prices</tspan></text><g  id="v-374" color="#000000" opacity="0.75" transform="matrix(1,0,0,1,210,238.8000030517578)" style="fill: rgb(0, 0, 0);" display="none"><g  transform="translate(5 0)"><svg xmlns="http://www.w3.org/2000/svg" width="20" height="20" fill="currentColor" viewBox="0 0 16 16"><path fill-rule="evenodd" d="M6.5 12a5.5 5.5 0 1 0 0-11 5.5 5.5 0 0 0 0 11zM13 6.5a6.5 6.5 0 1 1-13 0 6.5 6.5 0 0 1 13 0z"></path><path d="M10.344 11.742c.03.04.062.078.098.115l3.85 3.85a1 1 0 0 0 1.415-1.414l-3.85-3.85a1.007 1.007 0 0 0-.115-.1 6.538 6.538 0 0 1-1.398 1.4z"></path><path fill-rule="evenodd" d="M6.5 3a.5.5 0 0 1 .5.5V6h2.5a.5.5 0 0 1 0 1H7v2.5a.5.5 0 0 1-1 0V7H3.5a.5.5 0 0 1 0-1H6V3.5a.5.5 0 0 1 .5-.5z"></path></svg></g><g ></g><g ></g><g ></g></g><image  id="v-375"></image></g></g><g   id="j_30"  transform="translate(208,1508)" style=""><g  id="v-382" style="opacity: 1;"><rect  id="v-383" rx="1" ry="1" stroke="#c7c7c7" stroke-width="2" pointer-events="visiblePainted" fill="#dddddd" width="450" height="300" style="fill: rgb(221, 221, 221); stroke: rgb(199, 199, 199);"></rect><text  id="v-384" font-size="34" xml:space="preserve" y="0.8em" font-weight="bold" text-anchor="middle" pointer-events="visible" font-family="Open Sans" fill="#000000" transform="matrix(1,0,0,1,225,50.79999923706055)" style="fill: rgb(0, 0, 0);"><tspan  dy="0">Gas Station Provider</tspan><tspan dy="1.2em" x="0" >System</tspan></text><text  id="v-385" font-size="17" xml:space="preserve" y="0.8em" text-anchor="middle" font-family="Open Sans" fill="#000000" transform="matrix(1,0,0,1,225,132.39999389648438)" style="fill: rgb(0, 0, 0);"><tspan  dy="0">[Software System]</tspan></text><text  id="v-386" font-size="24" xml:space="preserve" y="0.8em" text-anchor="middle" font-family="Open Sans" fill="#000000" transform="matrix(1,0,0,1,225,162.8000030517578)" style="fill: rgb(0, 0, 0);"><tspan  dy="0">System that provides a rest</tspan><tspan dy="1.2em" x="0" >interface to the currently supported</tspan><tspan dy="1.2em" x="0" >gas stations.</tspan></text><g  id="v-387" color="#000000" opacity="0.75" transform="matrix(1,0,0,1,222.5,259.20001220703125)" style="fill: rgb(0, 0, 0);" display="none"><g ></g><g ></g><g ></g><g ></g></g><image  id="v-388"></image></g></g><g   id="j_31"  transform="translate(958,1508)" style=""><g  id="v-395" style="opacity: 1;"><rect  id="v-396" rx="1" ry="1" stroke="#c7c7c7" stroke-width="2" pointer-events="visiblePainted" fill="#dddddd" width="450" height="300" style="fill: rgb(221, 221, 221); stroke: rgb(199, 199, 199);"></rect><text  id="v-397" font-size="34" xml:space="preserve" y="0.8em" font-weight="bold" text-anchor="middle" pointer-events="visible" font-family="Open Sans" fill="#000000" transform="matrix(1,0,0,1,225,65.19999694824219)" style="fill: rgb(0, 0, 0);"><tspan  dy="0">Gas Price Provider</tspan><tspan dy="1.2em" x="0" >System</tspan></text><text  id="v-398" font-size="17" xml:space="preserve" y="0.8em" text-anchor="middle" font-family="Open Sans" fill="#000000" transform="matrix(1,0,0,1,225,146.8000030517578)" style="fill: rgb(0, 0, 0);"><tspan  dy="0">[Software System]</tspan></text><text  id="v-399" font-size="24" xml:space="preserve" y="0.8em" text-anchor="middle" font-family="Open Sans" fill="#000000" transform="matrix(1,0,0,1,225,177.1999969482422)" style="fill: rgb(0, 0, 0);"><tspan  dy="0">System that sends MQTT messages</tspan><tspan dy="1.2em" x="0" >with the gas price updates.</tspan></text><g  id="v-400" color="#000000" opacity="0.75" transform="matrix(1,0,0,1,222.5,244.8000030517578)" style="fill: rgb(0, 0, 0);" display="none"><g ></g><g ></g><g ></g><g ></g></g><image  id="v-401"></image></g></g><g   id="j_32" ><path  stroke="#707070" d="M 808 608 L 808 908" id="v-411" stroke-width="2" stroke-dasharray="30 30" fill="none" style="opacity: 1;"></path><path  fill="black" stroke="black" d="M 0 0 0 0" transform="matrix(6.123234262925839e-17,1,-1,6.123234262925839e-17,808,608)"></path><path  fill="#707070" stroke="#707070" d="M 20 0 L 0 10 L 20 20 z" id="v-413" transform="matrix(-1.8369701465288538e-16,-1,1,-1.8369701465288538e-16,798,908)" style="opacity: 1;"></path><path  d="M 808 608 L 808 908" id="v-412" fill="none" style="cursor: auto; pointer-events: visiblepainted;"></path><g ><g id="v-405"  label-idx="0" cursor="move" transform="matrix(1,0,0,1,808,758)" style="cursor: default; opacity: 1;"><rect joint-selector="rect" id="v-408" fill="#ffffff" rx="3" ry="3" stroke="#ffffff" stroke-width="20px" pointer-events="none" width="53.87517547607422" height="33.046112060546875" transform="matrix(1,0,0,1,-26.899999618530273,-16.5)"></rect><text joint-selector="text" id="v-407" font-size="24px" xml:space="preserve" y="0.8em" fill="#707070" text-anchor="middle" pointer-events="none" font-family="Open Sans" font-weight="normal" transform="matrix(1,0,0,1,0,-10.199999809265137)"><tspan  dy="0">Uses</tspan></text></g><g id="v-406"  label-idx="1" cursor="move" transform="matrix(1,0,0,1,798,782.4000244140625)" style="cursor: default; opacity: 1;"><rect joint-selector="rect" id="v-410" fill="#ffffff" rx="3" ry="3"  width="0" height="0" transform="matrix(1,0,0,1,0,0)" display="none"></rect><text joint-selector="text" id="v-409" fill="#000000" font-size="14" text-anchor="middle" pointer-events="none"></text></g></g><g  display="none" style="display: none;"></g><g  id="v-415" display="none"><g  id="v-403"><path  end="source" d="M 26 0 L 0 13 L 26 26 z"></path></g><g  id="v-404"><path  end="target" d="M 26 0 L 0 13 L 26 26 z"></path></g></g><g  id="v-414" display="none"><g  id="v-402" transform="translate(808, 648) "><g  event="remove"><circle r="11"></circle><path transform="scale(.8) translate(-16, -16)" d="M24.778,21.419 19.276,15.917 24.777,10.415 21.949,7.585 16.447,13.087 10.945,7.585 8.117,10.415 13.618,15.917 8.116,21.419 10.946,24.248 16.447,18.746 21.948,24.248z"></path><title>Remove link.</title></g><g  event="link:options"><circle r="11" transform="translate(25)"></circle><path fill="white" transform="scale(.55) translate(29, -16)" d="M31.229,17.736c0.064-0.571,0.104-1.148,0.104-1.736s-0.04-1.166-0.104-1.737l-4.377-1.557c-0.218-0.716-0.504-1.401-0.851-2.05l1.993-4.192c-0.725-0.91-1.549-1.734-2.458-2.459l-4.193,1.994c-0.647-0.347-1.334-0.632-2.049-0.849l-1.558-4.378C17.165,0.708,16.588,0.667,16,0.667s-1.166,0.041-1.737,0.105L12.707,5.15c-0.716,0.217-1.401,0.502-2.05,0.849L6.464,4.005C5.554,4.73,4.73,5.554,4.005,6.464l1.994,4.192c-0.347,0.648-0.632,1.334-0.849,2.05l-4.378,1.557C0.708,14.834,0.667,15.412,0.667,16s0.041,1.165,0.105,1.736l4.378,1.558c0.217,0.715,0.502,1.401,0.849,2.049l-1.994,4.193c0.725,0.909,1.549,1.733,2.459,2.458l4.192-1.993c0.648,0.347,1.334,0.633,2.05,0.851l1.557,4.377c0.571,0.064,1.148,0.104,1.737,0.104c0.588,0,1.165-0.04,1.736-0.104l1.558-4.377c0.715-0.218,1.399-0.504,2.049-0.851l4.193,1.993c0.909-0.725,1.733-1.549,2.458-2.458l-1.993-4.193c0.347-0.647,0.633-1.334,0.851-2.049L31.229,17.736zM16,20.871c-2.69,0-4.872-2.182-4.872-4.871c0-2.69,2.182-4.872,4.872-4.872c2.689,0,4.871,2.182,4.871,4.872C20.871,18.689,18.689,20.871,16,20.871z"></path><title>Link options.</title></g></g></g></g><g   id="j_33" ><path  stroke="#707070" d="M 902 1208 L 1089 1508" id="v-425" stroke-width="2" stroke-dasharray="30 30" fill="none" style="opacity: 1;"></path><path  fill="black" stroke="black" d="M 0 0 0 0" transform="matrix(0.5299989581108093,0.847998321056366,-0.847998321056366,0.5299989581108093,901.75,1208)"></path><path  fill="#707070" stroke="#707070" d="M 20 0 L 0 10 L 20 20 z" id="v-427" transform="matrix(-0.5299989581108093,-0.8479982614517212,0.8479982614517212,-0.5299989581108093,1080.7698974609375,1513.300048828125)" style="opacity: 1;"></path><path  d="M 902 1208 L 1089 1508" id="v-426" fill="none" style="cursor: auto; pointer-events: visiblepainted;"></path><g ><g id="v-419"  label-idx="0" cursor="move" transform="matrix(1,0,0,1,995.5,1358)" style="cursor: default; opacity: 1;"><rect joint-selector="rect" id="v-422" fill="#ffffff" rx="3" ry="3" stroke="#ffffff" stroke-width="20px" pointer-events="none" width="0" height="0" transform="matrix(1,0,0,1,0,0)"></rect><text joint-selector="text" id="v-421" font-size="24px" xml:space="preserve" display="none" y="0.8em" fill="#707070" text-anchor="middle" pointer-events="none" font-family="Open Sans" font-weight="normal"><tspan style="fill-opacity: 0; stroke-opacity: 0;"  dy="0">-</tspan></text></g><g id="v-420"  label-idx="1" cursor="move" transform="matrix(1,0,0,1,985.5,1368)" style="cursor: default; opacity: 1;"><rect joint-selector="rect" id="v-424" fill="#ffffff" rx="3" ry="3"  width="0" height="0" transform="matrix(1,0,0,1,0,0)" display="none"></rect><text joint-selector="text" id="v-423" fill="#000000" font-size="14" text-anchor="middle" pointer-events="none"></text></g></g><g  display="none" style="display: none;"></g><g  id="v-429" display="none"><g  id="v-417"><path  end="source" d="M 26 0 L 0 13 L 26 26 z"></path></g><g  id="v-418"><path  end="target" d="M 26 0 L 0 13 L 26 26 z"></path></g></g><g  id="v-428" display="none"><g  id="v-416" transform="translate(923.1592588038858, 1241.9453349794958) "><g  event="remove"><circle r="11"></circle><path transform="scale(.8) translate(-16, -16)" d="M24.778,21.419 19.276,15.917 24.777,10.415 21.949,7.585 16.447,13.087 10.945,7.585 8.117,10.415 13.618,15.917 8.116,21.419 10.946,24.248 16.447,18.746 21.948,24.248z"></path><title>Remove link.</title></g><g  event="link:options"><circle r="11" transform="translate(25)"></circle><path fill="white" transform="scale(.55) translate(29, -16)" d="M31.229,17.736c0.064-0.571,0.104-1.148,0.104-1.736s-0.04-1.166-0.104-1.737l-4.377-1.557c-0.218-0.716-0.504-1.401-0.851-2.05l1.993-4.192c-0.725-0.91-1.549-1.734-2.458-2.459l-4.193,1.994c-0.647-0.347-1.334-0.632-2.049-0.849l-1.558-4.378C17.165,0.708,16.588,0.667,16,0.667s-1.166,0.041-1.737,0.105L12.707,5.15c-0.716,0.217-1.401,0.502-2.05,0.849L6.464,4.005C5.554,4.73,4.73,5.554,4.005,6.464l1.994,4.192c-0.347,0.648-0.632,1.334-0.849,2.05l-4.378,1.557C0.708,14.834,0.667,15.412,0.667,16s0.041,1.165,0.105,1.736l4.378,1.558c0.217,0.715,0.502,1.401,0.849,2.049l-1.994,4.193c0.725,0.909,1.549,1.733,2.459,2.458l4.192-1.993c0.648,0.347,1.334,0.633,2.05,0.851l1.557,4.377c0.571,0.064,1.148,0.104,1.737,0.104c0.588,0,1.165-0.04,1.736-0.104l1.558-4.377c0.715-0.218,1.399-0.504,2.049-0.851l4.193,1.993c0.909-0.725,1.733-1.549,2.458-2.458l-1.993-4.193c0.347-0.647,0.633-1.334,0.851-2.049L31.229,17.736zM16,20.871c-2.69,0-4.872-2.182-4.872-4.871c0-2.69,2.182-4.872,4.872-4.872c2.689,0,4.871,2.182,4.871,4.872C20.871,18.689,18.689,20.871,16,20.871z"></path><title>Link options.</title></g></g></g></g><g   id="j_34" ><path  stroke="#707070" d="M 714 1208 L 527 1508" id="v-439" stroke-width="2" stroke-dasharray="30 30" fill="none" style="opacity: 1;"></path><path  fill="black" stroke="black" d="M 0 0 0 0" transform="matrix(-0.5299989581108093,0.8479982614517212,-0.8479982614517212,-0.5299989581108093,714.25,1208)"></path><path  fill="#707070" stroke="#707070" d="M 20 0 L 0 10 L 20 20 z" id="v-441" transform="matrix(0.529998779296875,-0.8479984402656555,0.8479984402656555,0.529998779296875,518.27001953125,1502.7000732421875)" style="opacity: 1;"></path><path  d="M 714 1208 L 527 1508" id="v-440" fill="none" style="cursor: auto; pointer-events: visiblepainted;"></path><g ><g id="v-433"  label-idx="0" cursor="move" transform="matrix(1,0,0,1,620.5,1358)" style="cursor: default; opacity: 1;"><rect joint-selector="rect" id="v-436" fill="#ffffff" rx="3" ry="3" stroke="#ffffff" stroke-width="20px" pointer-events="none" width="0" height="0" transform="matrix(1,0,0,1,0,0)"></rect><text joint-selector="text" id="v-435" font-size="24px" xml:space="preserve" display="none" y="0.8em" fill="#707070" text-anchor="middle" pointer-events="none" font-family="Open Sans" font-weight="normal"><tspan style="fill-opacity: 0; stroke-opacity: 0;"  dy="0">-</tspan></text></g><g id="v-434"  label-idx="1" cursor="move" transform="matrix(1,0,0,1,610.5,1368)" style="cursor: default; opacity: 1;"><rect joint-selector="rect" id="v-438" fill="#ffffff" rx="3" ry="3"  width="0" height="0" transform="matrix(1,0,0,1,0,0)" display="none"></rect><text joint-selector="text" id="v-437" fill="#000000" font-size="14" text-anchor="middle" pointer-events="none"></text></g></g><g  display="none" style="display: none;"></g><g  id="v-443" display="none"><g  id="v-431"><path  end="source" d="M 26 0 L 0 13 L 26 26 z"></path></g><g  id="v-432"><path  end="target" d="M 26 0 L 0 13 L 26 26 z"></path></g></g><g  id="v-442" display="none"><g  id="v-430" transform="translate(692.8407411961143, 1241.9453349794958) "><g  event="remove"><circle r="11"></circle><path transform="scale(.8) translate(-16, -16)" d="M24.778,21.419 19.276,15.917 24.777,10.415 21.949,7.585 16.447,13.087 10.945,7.585 8.117,10.415 13.618,15.917 8.116,21.419 10.946,24.248 16.447,18.746 21.948,24.248z"></path><title>Remove link.</title></g><g  event="link:options"><circle r="11" transform="translate(25)"></circle><path fill="white" transform="scale(.55) translate(29, -16)" d="M31.229,17.736c0.064-0.571,0.104-1.148,0.104-1.736s-0.04-1.166-0.104-1.737l-4.377-1.557c-0.218-0.716-0.504-1.401-0.851-2.05l1.993-4.192c-0.725-0.91-1.549-1.734-2.458-2.459l-4.193,1.994c-0.647-0.347-1.334-0.632-2.049-0.849l-1.558-4.378C17.165,0.708,16.588,0.667,16,0.667s-1.166,0.041-1.737,0.105L12.707,5.15c-0.716,0.217-1.401,0.502-2.05,0.849L6.464,4.005C5.554,4.73,4.73,5.554,4.005,6.464l1.994,4.192c-0.347,0.648-0.632,1.334-0.849,2.05l-4.378,1.557C0.708,14.834,0.667,15.412,0.667,16s0.041,1.165,0.105,1.736l4.378,1.558c0.217,0.715,0.502,1.401,0.849,2.049l-1.994,4.193c0.725,0.909,1.549,1.733,2.459,2.458l4.192-1.993c0.648,0.347,1.334,0.633,2.05,0.851l1.557,4.377c0.571,0.064,1.148,0.104,1.737,0.104c0.588,0,1.165-0.04,1.736-0.104l1.558-4.377c0.715-0.218,1.399-0.504,2.049-0.851l4.193,1.993c0.909-0.725,1.733-1.549,2.458-2.458l-1.993-4.193c0.347-0.647,0.633-1.334,0.851-2.049L31.229,17.736zM16,20.871c-2.69,0-4.872-2.182-4.872-4.871c0-2.69,2.182-4.872,4.872-4.872c2.689,0,4.871,2.182,4.871,4.872C20.871,18.689,18.689,20.871,16,20.871z"></path><title>Link options.</title></g></g></g></g></g><g ></g><g ></g><g ></g></g></svg>